<?xml version="1.0" encoding="utf-8"?>
<!-- Generator: Adobe Illustrator 21.0.2, SVG Export Plug-In . SVG Version: 6.00 Build 0)  -->
<svg version="1.1" id="Layer_1" xmlns="http://www.w3.org/2000/svg" xmlns:xlink="http://www.w3.org/1999/xlink" x="0px" y="0px"
	 viewBox="0 0 192 192" style="enable-background:new 0 0 192 192;" xml:space="preserve">
<style type="text/css">
	.st0{display:none;}
	.st1{display:inline;}
	.st2{fill:#FFFFFF;}
	.st3{fill-rule:evenodd;clip-rule:evenodd;fill:#FFFFFF;}
	.st4{display:inline;fill:#FFFFFF;}
	.st5{fill-rule:evenodd;clip-rule:evenodd;}
	.st6{font-family:'FranklinGothic-MediumItalic';}
	.st7{font-size:33.9374px;}
	.st8{letter-spacing:8;}
</style>
<rect width="192" height="192"/>
<g>
	<g>
		<path class="st2" d="M112.6,64.1c-2.4,7-5.1,9.6-9.7,9.5c-4.5,0-7.9-3.1-9.9-9.1c-1.9,5.7-5.1,9.8-11.5,8.9c-4.9-0.6-7.2-4.1-8-9
			c-0.5,1.1-0.8,2-1.3,2.9c-2,3.5-4.8,5.8-8.9,6.2c-4.7,0.5-8.5-2.9-9.1-7.9c-0.1-0.4-0.1-0.9-0.1-1.6c-0.3,0.7-0.5,1.2-0.8,1.6
			c-1.9,3.7-4.6,6.5-8.8,7.6c-5.6,1.4-9.9-2.2-9.7-8c0-0.3,0-0.6,0.1-1.3c-0.4,0.8-0.7,1.3-1,1.7c-2.3,3.8-5.3,6.7-9.8,7.7
			c-6,1.3-10.5-3.1-9-9c1.2-4.6,3-9.1,4.6-13.6c3.3-9.3,6.6-18.6,9.8-27.9c0.4-1.1,0.9-1.4,2.1-1.4c41,0,82,0,123,0
			c1,0,1.5,0.3,1.8,1.3c4.6,13.2,9.3,26.4,14,39.7c0.4,1.3,0.7,2.6,0.7,4c0.1,5-3.6,8.1-8.5,7.2c-4.5-0.8-7.6-3.6-10-7.4
			c-0.4-0.6-0.7-1.2-1.1-2c-0.2,1.4-0.2,2.7-0.5,3.9c-1.1,4.1-4.8,6.4-9,5.4c-4.3-1-7.2-3.7-9.2-7.5c-0.3-0.5-0.5-1.1-0.8-1.8
			c-0.2,1-0.3,1.9-0.5,2.7c-1.3,5.5-6.6,8.2-11.8,6C116.1,71.2,113.9,68.1,112.6,64.1z"/>
		<path class="st2" d="M161.1,84.8c0,18.3,0,36.5,0,54.8c-45.4,0-90.6,0-136.1,0c0-18.3,0-36.5,0-54.8
			C70.3,84.8,115.6,84.8,161.1,84.8z"/>
		<path d="M34.4,98.9c0,8.9,0,17.7,0,26.5c20.6,0,3.1,0,23.6,0c0-8.9,0-17.6,0-26.5C37.4,98.9,55,98.9,34.4,98.9z"/>
		<path d="M151.7,132c0-13.2,0-26.2,0-39.2c-13,0-10.9,0-23.8,0c0,13.1,0,26.2,0,39.2C140.9,132,138.7,132,151.7,132z"/>
		<path class="st2" d="M11.8,167.2c0-5.9,0-11.8,0-17.7c54.1,0,108.2,0,162.4,0c0,5.9,0,11.7,0,17.7
			C120.1,167.2,66,167.2,11.8,167.2z"/>
		<path d="M151.7,132c-13.5,0-10.2,0-23.7,0c0-13,0-26.1,0-39.2c13.4,0,10.2,0,23.7,0C151.7,105.8,151.7,118.8,151.7,132z"/>
	</g>
	<text transform="matrix(1 0 0 1 47.533 55.1152)" class="st6 st7 st8">Café</text>
</g>
<g>
	<g>
		<path class="st3" d="M103.5,98.8c-1.6,0-3.1-0.7-4.1-1.9c-1.2-1.5-3-2.3-4.9-2.3c-1.9,0-3.7,0.8-4.9,2.3c-1,1.2-2.5,1.9-4.1,1.9
			c-1.3,0-2.5-0.5-3.5-1.3c-1.1-0.9-1.7-2.2-1.9-3.6c0-0.5,0-1,0.1-1.5c-0.6,0.2-1.3,0.4-1.9,0.4c-1.2,0-2.5-0.4-3.4-1.2
			c-1.1-0.9-1.8-2.2-1.9-3.6c0-0.5,0-1,0.1-1.5c-0.6,0.2-1.3,0.4-1.9,0.4c-1.3,0-2.5-0.4-3.4-1.3c-1.1-0.9-1.8-2.2-1.9-3.6
			s0.3-2.8,1.2-3.9C74,69.9,84,65.2,94.6,65.2c10.6,0,20.5,4.7,27.4,12.8c1.9,2.3,1.6,5.6-0.7,7.5c-1,0.8-2.2,1.2-3.4,1.2
			c-0.7,0-1.3-0.1-1.9-0.4c0.1,0.5,0.1,1,0.1,1.5c-0.1,1.4-0.8,2.7-1.9,3.6c-0.9,0.8-2.2,1.2-3.4,1.2c-0.7,0-1.3-0.1-1.9-0.4
			c0.1,0.5,0.1,1,0.1,1.5c-0.1,1.4-0.8,2.7-1.9,3.6C106,98.3,104.8,98.8,103.5,98.8z"/>
	</g>
	<path class="st2" d="M94.7,150.7c-16.1,0-29.1-13.1-29.1-29.1v-28h58.3v7.4c7.3,0.2,13.2,6.2,13.2,13.6c0,7.5-6.1,13.6-13.6,13.6
		h-0.4C120.1,141.1,108.4,150.7,94.7,150.7z"/>
	<path d="M123.4,105.9h-4.6v-7.4H70.6v23c0,13.3,10.8,24.1,24.1,24.1c12.8,0,23.3-10,24.1-22.6h4.7c4.7,0,8.6-3.8,8.6-8.6
		C132,109.8,128.2,105.9,123.4,105.9z M123.4,119.3H119v-9.5h4.4c2.6,0,4.7,2.1,4.7,4.7C128.2,117.1,126.1,119.3,123.4,119.3z"/>
	<g>
		<path class="st2" d="M94.6,119.7c-0.4,0-0.8-0.1-1.1-0.5c-0.3-0.3-0.5-0.7-0.5-1.1v-11.7c0-0.4,0.1-0.8,0.5-1.1
			c0.3-0.3,0.7-0.5,1.1-0.5c0.4,0,0.8,0.1,1.1,0.5c0.3,0.3,0.5,0.7,0.5,1.1v11.7c0,0.4-0.1,0.8-0.5,1.1
			C95.3,119.6,95,119.7,94.6,119.7z"/>
		<path class="st2" d="M94.6,133.8c-1.8,0-3.5-0.4-5.1-1.1c-1.6-0.7-3-1.6-4.2-2.8c-1.2-1.2-2.1-2.6-2.8-4.2
			c-0.7-1.6-1.1-3.3-1.1-5.1c0-2.1,0.5-4.1,1.4-5.9c0.9-1.8,2.2-3.4,3.9-4.7c0.3-0.2,0.6-0.3,0.9-0.3c0.1,0,0.2,0,0.2,0
			c0.4,0.1,0.7,0.2,1,0.6c0.3,0.4,0.4,0.7,0.3,1.1c-0.1,0.4-0.2,0.8-0.6,1c-1.3,1-2.3,2.2-3,3.6c-0.7,1.4-1.1,2.9-1.1,4.5
			c0,1.4,0.3,2.7,0.8,4c0.5,1.2,1.3,2.3,2.2,3.2c0.9,0.9,2,1.6,3.2,2.2c1.2,0.5,2.6,0.8,3.9,0.8s2.7-0.3,4-0.8
			c1.2-0.5,2.3-1.3,3.2-2.2c0.9-0.9,1.6-2,2.2-3.2c0.5-1.3,0.8-2.6,0.8-4c0-1.6-0.4-3.1-1.1-4.5c-0.7-1.4-1.7-2.6-3-3.6
			c-0.3-0.3-0.5-0.6-0.6-1c-0.1-0.4,0-0.8,0.3-1.1c0.3-0.4,0.6-0.5,1-0.6c0.1,0,0.2,0,0.2,0c0.3,0,0.6,0.1,0.9,0.3
			c1.7,1.3,3,2.8,3.9,4.7c0.9,1.8,1.4,3.8,1.4,5.9c0,1.8-0.4,3.5-1.1,5.1c-0.7,1.6-1.7,3.1-2.8,4.2c-1.2,1.2-2.6,2.1-4.2,2.8
			C98.1,133.4,96.4,133.8,94.6,133.8z"/>
	</g>
	<g>
		<path class="st5" d="M94.6,86.9 M119.6,79.9c-6.3-7.4-15.4-11.7-25.1-11.7c-9.7,0-18.8,4.3-25.1,11.7c-0.8,1-0.7,2.5,0.3,3.3
			c0.4,0.4,1,0.5,1.5,0.5c0.7,0,1.3-0.3,1.8-0.8c5.4-6.4,13.2-10.1,21.5-10.1c8.3,0,16.1,3.7,21.5,10c0.5,0.6,1.1,0.8,1.8,0.8
			c0.5,0,1.1-0.2,1.5-0.5C120.3,82.4,120.5,80.9,119.6,79.9L119.6,79.9z M94.6,77.6c-6.9,0-13.4,3-17.9,8.4c-0.8,1-0.7,2.5,0.3,3.3
			c0.4,0.4,1,0.5,1.5,0.5c0.7,0,1.3-0.3,1.8-0.8c3.6-4.3,8.8-6.7,14.3-6.7c5.5,0,10.7,2.4,14.3,6.7c0.5,0.5,1.1,0.8,1.8,0.8
			c0.5,0,1.1-0.2,1.5-0.5c1-0.8,1.1-2.3,0.3-3.3C108,80.6,101.5,77.6,94.6,77.6L94.6,77.6z M94.6,86.9c-4.2,0-8.1,1.8-10.7,5
			c-0.8,1-0.7,2.5,0.3,3.3c0.4,0.4,1,0.5,1.5,0.5c0.7,0,1.3-0.3,1.8-0.8c1.8-2.1,4.4-3.4,7.2-3.4c2.8,0,5.4,1.2,7.2,3.4
			c0.5,0.5,1.1,0.8,1.8,0.8c0.5,0,1.1-0.2,1.5-0.5c1-0.8,1.1-2.3,0.3-3.3C102.6,88.7,98.7,86.9,94.6,86.9L94.6,86.9z"/>
	</g>
</g>
</svg>
